<?xml version="1.0" encoding="UTF-8" standalone="no"?>
<!-- Created with Inkscape (http://www.inkscape.org/) -->

<svg
   width="235.05003mm"
   height="222.763mm"
   viewBox="0 0 235.05004 222.763"
   version="1.1"
   id="svg1"
   xml:space="preserve"
   inkscape:version="1.4.2 (f4327f4, 2025-05-13)"
   sodipodi:docname="Vyzyvatel_Icon.svg"
   inkscape:export-filename="Vyzyvatel_Icon_Small.png"
   inkscape:export-xdpi="180"
   inkscape:export-ydpi="180"
   xmlns:inkscape="http://www.inkscape.org/namespaces/inkscape"
   xmlns:sodipodi="http://sodipodi.sourceforge.net/DTD/sodipodi-0.dtd"
   xmlns="http://www.w3.org/2000/svg"
   xmlns:svg="http://www.w3.org/2000/svg"><sodipodi:namedview
     id="namedview1"
     pagecolor="#505050"
     bordercolor="#eeeeee"
     borderopacity="1"
     inkscape:showpageshadow="0"
     inkscape:pageopacity="0"
     inkscape:pagecheckerboard="true"
     inkscape:deskcolor="#505050"
     inkscape:document-units="mm"
     inkscape:zoom="0.41323289"
     inkscape:cx="388.40084"
     inkscape:cy="631.6051"
     inkscape:window-width="1384"
     inkscape:window-height="878"
     inkscape:window-x="49"
     inkscape:window-y="-6"
     inkscape:window-maximized="1"
     inkscape:current-layer="g15" /><defs
     id="defs1"><inkscape:path-effect
       effect="offset"
       id="path-effect15"
       is_visible="true"
       lpeversion="1.3"
       linejoin_type="bevel"
       unit="mm"
       offset="3.9"
       miter_limit="4"
       attempt_force_join="false"
       update_on_knot_move="true" /></defs><g
     inkscape:label="Layer 1"
     inkscape:groupmode="layer"
     id="layer1"
     transform="translate(-445.61039,-23.463008)"><g
       id="g15"
       transform="matrix(0.86611697,0,0,0.86611697,74.795046,28.453605)"><path
         style="fill:#fdbb18;stroke:none"
         d="m 481.40112,37.709102 c 1.79535,-4.05528 3.64072,-9.36113 4.23333,-13.75834 -7.06283,0.0585 -13.94877,3.73404 -20.10833,6.81383 -2.22345,1.11172 -5.5633,2.26178 -7.2397,4.13434 -2.8338,3.16538 -3.9512,8.2619 -6.44473,11.806 -4.08151,5.8011 -11.02727,8.72371 -16.47807,13.02033 -2.5663,2.02289 -5.29065,4.16731 -6.42942,7.35258 -2.2755,6.36486 1.46388,12.95375 4.24742,18.52084 3.37741,6.75482 6.74763,15.652528 12.01752,21.142988 4.84264,5.04533 11.50263,7.90675 15.91664,13.51742 5.69117,7.23409 8.61144,16.06768 12.877,24.07709 -3.8448,-0.91786 -7.98462,-0.81345 -11.90625,-1.08201 -5.34109,-0.36577 -11.08164,-0.79603 -16.40416,-0.0886 -3.88213,0.51597 -7.34292,1.01399 -9.91412,4.34561 -2.14101,2.77422 -2.71196,6.15539 -3.1258,9.52501 -0.9414,7.66526 0.33422,15.93341 1.32374,23.54791 0.85009,6.54166 1.58591,13.10159 2.87918,19.57917 0.31672,1.58637 0.31272,5.66038 1.77348,6.60722 1.15415,0.74814 3.35773,0.46899 4.68227,0.5602 3.26533,0.22489 6.5235,0.56883 9.78958,0.79375 8.85881,0.61008 16.80583,2.55679 25.4,4.70534 30.6749,7.66875 62.82547,12.31504 94.45625,11.93871 7.24999,-0.0862 14.23428,-3.34295 21.43124,-3.43365 8.90046,-0.1122 18.09985,1.26223 26.9875,1.87085 3.58084,0.24524 7.53514,1.00559 11.1125,0.60349 4.47515,-0.50301 8.83105,-3.28172 12.7,-5.42642 5.99104,-3.32101 12.02222,-6.51239 17.72708,-10.3263 2.90995,-1.9454 7.46116,-4.59171 8.51935,-8.15777 0.86266,-2.90716 -2.03552,-5.66142 -2.38493,-8.46667 -0.53967,-4.33271 1.34751,-11.51853 3.40282,-15.34583 1.1828,-2.20255 3.53419,-3.81101 5.27943,-5.55625 4.46092,-4.46092 9.33262,-8.51998 13.53764,-13.22917 1.78302,-1.99679 4.0329,-4.11781 5.10693,-6.61459 2.18573,-5.08114 2.5221,-12.27092 2.5221,-17.72708 0,-1.73859 0.44968,-4.23062 -0.34767,-5.82083 -1.85112,-3.69176 -6.56123,-6.35376 -9.97108,-8.41276 -7.27898,-4.39536 -15.21761,-8.13893 -23.01875,-11.50531 -4.08854,-1.7643 -8.42919,-3.88191 -12.96459,-3.89443 4.25822,-4.798038 10.48347,-8.302788 15.34584,-12.510138 10.53131,-9.11265 19.98799,-19.39771 26.25907,-31.93986 3.05898,-6.11797 7.14942,-15.8324 4.44443,-22.75313 -1.46976,-3.7604 -7.91749,-2.78142 -11.12434,-2.92185 -1.26089,-0.0552 -2.43258,-0.26856 -3.70416,-0.14802 -6.91988,0.6559 -13.73708,0.34862 -20.6375,1.54748 -4.57734,0.79524 -9.17133,1.46971 -13.75833,2.20649 -2.40385,0.38612 -5.23954,1.25548 -7.67292,1.06363 -4.14109,-0.32647 -8.59562,-3.87651 -12.17083,-5.77568 -7.71554,-4.09856 -15.71049,-8.20748 -24.34167,-9.99519 -14.21191,-2.94362 -28.71196,-3.34867 -43.12708,-3.97996 -8.59588,-0.37643 -17.68006,-0.8837 -26.19375,0.65183 -18.9373,3.41552 -36.86067,11.6022 -54.50416,18.93773 m 76.99374,31.0318 c 4.90753,-0.58097 10.54624,0.92215 15.34584,1.88228 12.20017,2.44056 26.31078,5.65329 36.50208,13.17875 4.00975,2.96087 7.20473,7.36551 10.85833,10.76892 6.58939,6.138138 13.59357,11.631498 21.16667,16.509288 7.0192,4.52103 14.47991,8.21161 21.96041,11.88931 2.08166,1.02342 6.78053,2.32203 5.78816,5.49174 -2.26922,7.24805 -13.43298,11.49899 -20.07566,13.13015 -3.98449,0.97843 -7.53208,1.03792 -11.37708,-0.48406 -3.15033,-1.247 -6.8022,-4.07194 -10.31875,-3.57084 -4.04047,0.57576 -8.29835,2.51031 -12.17083,3.80114 -7.28459,2.4282 -14.62832,4.69558 -21.96042,6.97411 -4.54366,1.41199 -9.28075,3.29185 -14.02291,3.88522 -5.53529,0.69261 -12.30011,-5.00496 -16.66875,-7.80336 -14.63199,-9.37272 -28.72759,-20.29854 -41.01042,-32.60111 -4.12134,-4.12796 -12.14051,-11.20434 -11.32809,-17.727088 0.56674,-4.55017 7.09449,-7.93732 10.53434,-10.23056 11.17047,-7.44697 23.30308,-13.4988 36.77708,-15.09389 m -41.275,18.70987 0.26459,0.26458 -0.26459,-0.26458 m 14.2875,32.014578 0.26459,0.26459 -0.26459,-0.26459 m 92.075,18.78542 0.26458,0.26458 -0.26458,-0.26458 m -65.88125,1.58749 0.26459,0.26458 -0.26459,-0.26458"
         id="path13-7"
         sodipodi:nodetypes="ccsssssssscsssssssssssssssssssssssssscssssssssssssccssssssssssssssssccccccccccccc" /><path
         style="fill:#ffd73d;fill-opacity:1;stroke:#ffd73d;stroke-width:6.84464;stroke-dasharray:none;stroke-opacity:1"
         d="m 571.4839,149.01904 c -30.0169,-18.4939 -59.72297,-45.09413 -59.72297,-53.478768 0,-3.73158 1.72093,-5.62311 10.15406,-11.1606 10.43337,-6.85091 19.91493,-11.3515 28.58746,-13.56958 8.85646,-2.2651 11.66786,-2.20372 24.43163,0.53327 22.95406,4.92217 30.66436,8.55866 42.19834,19.90246 13.41271,13.191508 24.84626,21.201828 43.80762,30.691448 8.85534,4.43183 9.67163,5.54255 6.93976,9.44282 -3.29877,4.70966 -15.45415,10.12412 -22.72846,10.12412 -2.18635,0 -6.36931,-1.01398 -9.33858,-2.26372 -2.9581,-1.24505 -5.99391,-2.26372 -6.74625,-2.26372 -0.75233,0 -10.84948,3.08306 -22.43811,6.85125 -25.17533,8.18611 -29.29551,8.79467 -35.1445,5.19102 z"
         id="path14-6" /><path
         style="fill:#f48e00;fill-opacity:1"
         d="m 565.27084,225.80885 c -0.7276,-0.0432 -3.82323,-0.20528 -6.87917,-0.36027 -16.27982,-0.82568 -21.12762,-1.1984 -31.10132,-2.39121 -10.69206,-1.27873 -15.84516,-2.09705 -28.42992,-4.5147 -9.51726,-1.82835 -26.05016,-5.8078 -32.27917,-7.76955 -1.17925,-0.3714 -7.05168,-0.93053 -23.87865,-2.27356 -2.22216,-0.17736 -4.14403,-0.45353 -4.27781,-0.61472 -0.65996,-0.79521 -4.26061,-22.97067 -4.25308,-26.19364 0.002,-0.76439 0.10489,-0.85315 1.52135,-1.30964 4.5468,-1.46533 17.21683,-7.78605 18.24952,-9.10417 0.20184,-0.25762 0.85655,-0.45069 1.71979,-0.50714 5.63175,-0.36832 17.30235,-1.30326 25.86784,-2.07229 5.60255,-0.50302 12.15099,-1.05746 14.55208,-1.23211 6.15152,-0.44742 18.36329,-0.44602 21.03438,0.002 1.16416,0.19545 6.53773,1.8245 11.94126,3.62012 18.1127,6.01895 36.61854,11.71638 42.11803,12.96696 1.50156,0.34146 4.06141,0.74529 5.68854,0.89741 2.90507,0.27159 14.56346,0.72491 20.5532,0.79918 1.67349,0.0208 8.35208,0.20837 14.84131,0.41694 6.48923,0.20858 14.28783,0.45717 17.33021,0.55244 6.07497,0.19023 9.82526,-0.0881 13.25839,-0.98415 3.68774,-0.96244 3.87412,-1.14135 5.62032,-5.39509 2.6714,-6.50751 5.35501,-11.32434 7.90139,-14.18225 1.05461,-1.18364 1.13887,-1.22271 3.01509,-1.39802 1.06159,-0.0992 4.13282,-0.29499 6.82496,-0.4351 10.63378,-0.55344 15.04698,-1.08308 18.82668,-2.25943 1.21423,-0.3779 2.65418,-0.9765 3.19988,-1.33021 0.5457,-0.35372 0.99219,-0.59151 0.99219,-0.52843 0,0.0631 -3.75909,3.7178 -8.35352,8.1216 -4.85038,4.64913 -8.56304,8.41762 -8.85314,8.98627 -0.58494,1.14657 -3.22887,10.17801 -3.07437,12.64026 0.0926,1.47567 0.70269,3.19244 2.02449,6.30438 1.39868,3.29289 0.33144,3.85619 -0.0775,5.04302 -0.94988,2.75706 -5.207,6.23064 -14.34204,11.70235 -7.9878,4.78453 -19.06654,10.56803 -21.88206,11.42322 -2.58254,0.78442 -2.68411,0.77997 -34.47419,-1.51342 -3.20146,-0.23096 -6.48649,-0.35369 -7.30007,-0.27273 -0.81357,0.081 -4.20891,0.68146 -7.54518,1.33444 -9.62056,1.88297 -13.39639,2.22724 -20.07975,1.83083 z m 133.32702,-92.03344 c 2.8e-4,-2.61938 0.0399,-3.65515 0.088,-2.30173 0.0481,1.35343 0.0479,3.49656 -5e-4,4.7625 -0.0484,1.26595 -0.0878,0.1586 -0.0875,-2.46077 z M 428.41036,74.905596 c 0,-0.50932 0.0545,-0.717678 0.121,-0.46302 0.0666,0.25467 0.0666,0.67138 0,0.92605 -0.0666,0.25466 -0.121,0.0463 -0.121,-0.46303 z m -0.27439,-2.248954 c 0.005,-0.436563 0.0647,-0.583125 0.13177,-0.325694 0.0671,0.257431 0.0627,0.614619 -0.01,0.79375 -0.0725,0.179132 -0.12736,-0.03149 -0.12197,-0.468056 z m 0.27439,-1.984375 c 0,-0.509323 0.0545,-0.717682 0.121,-0.463021 0.0666,0.254662 0.0666,0.67138 0,0.926042 -0.0666,0.254661 -0.121,0.0463 -0.121,-0.463021 z m 270.15025,-25.4 c 0,-0.654843 0.0516,-0.922734 0.11466,-0.595312 0.0631,0.327422 0.0631,0.863203 0,1.190625 -0.0631,0.327422 -0.11466,0.05953 -0.11466,-0.595313 z m -0.0205,-6.217708 c 0.005,-0.436562 0.0647,-0.583125 0.13178,-0.325694 0.0671,0.257431 0.0627,0.614619 -0.01,0.79375 -0.0725,0.179132 -0.12736,-0.03149 -0.12197,-0.468056 z"
         id="path15"
         sodipodi:nodetypes="csssssscssssscssssssssssssssssssssssssccssssscsscscccscsssssscsccc" /><path
         id="path11-2"
         style="fill:#ffffff;fill-opacity:1;stroke:#ffffff;stroke-width:62.8905;stroke-dasharray:none;stroke-opacity:1"
         sodipodi:type="inkscape:offset"
         inkscape:radius="0"
         inkscape:original="M 2076.7402 9.6640625 C 2046.7108 9.7511643 2041.1325 12.349734 1937.1641 47.808594 C 1839.4776 81.12496 1851.5986 73.370718 1831.4004 115.47266 L 1814.3008 151.11523 L 1815.4727 222.10547 C 1816.5634 288.21351 1816.9762 293.54195 1821.4668 299.55664 C 1827.5119 307.65336 1832.5457 308.71349 1886.3457 313.24023 C 1910.3031 315.25602 1935.8944 317.42948 1943.2148 318.06836 L 1956.5234 319.22852 L 1987.9824 286.90039 C 2021.8495 252.09672 2022.5195 251.68788 2058.1621 244.02539 C 2081.0117 239.11314 2142.0527 239.85765 2159.6953 245.26367 C 2191.6233 255.047 2211.8281 271.753 2211.8281 288.37109 C 2211.8281 297.21809 2210.7327 297.89266 2137.5293 334.0332 C 2079.2935 362.78415 2078.8258 363.07733 2055.5176 385.35547 C 2030.1201 409.63069 1985.8851 458.75941 1976.0605 473.60547 C 1970.9751 481.29007 1969.546 487.4733 1967.4961 510.63477 C 1964.7236 541.96173 1964.2176 588.40043 1966.5234 599.92969 C 1967.3647 604.13623 1969.9928 608.61609 1972.3633 609.88477 C 1974.7339 611.15345 2005.8982 614.4017 2041.6172 617.10352 C 2077.3362 619.80534 2113.6379 622.94665 2122.2891 624.08398 C 2130.9404 625.22133 2140.3689 626.29019 2143.2402 626.45898 C 2149.0946 626.80307 2156.771 618.81581 2192.4688 575.23242 C 2215.1591 547.52995 2215.702 547.06774 2234.2793 539.82812 C 2244.6315 535.79381 2279.4801 524.17427 2311.7188 514.00586 C 2343.9576 503.83746 2373.0573 494.07942 2376.3848 492.32227 C 2384.7066 487.92765 2432.1984 450.66945 2451.625 433.29492 L 2467.5762 419.0293 L 2469.0977 389.00781 L 2470.6191 358.98633 L 2482.8652 346.74023 L 2495.1113 334.49414 L 2493.5703 300.94922 C 2492.7229 282.49953 2490.6529 248.00152 2488.9707 224.28711 L 2485.9121 181.16992 L 2474.8457 164.99805 C 2451.0942 130.28867 2407.1981 91.992794 2362.2402 66.759766 C 2306.5741 35.516609 2267.9783 20.358699 2235.6875 17.058594 C 2194.2493 12.823623 2133.1599 9.7033382 2091.4648 9.6914062 C 2085.8188 9.6897905 2081.0302 9.6516194 2076.7402 9.6640625 z M 1995.6387 666.69336 L 1971.0039 693.83008 L 1946.3711 720.9668 L 1944.793 743.20703 C 1942.2767 778.65623 1942.908 880.60562 1945.6758 885.77734 C 1950.304 894.4252 1979.0102 900.12499 2079.6172 912.37305 C 2110.4075 916.12149 2139.9449 919.00278 2145.2559 918.77734 C 2154.3634 918.39073 2156.056 916.99821 2175.043 894.25977 C 2186.1151 881.00003 2199.6022 863.57677 2205.0137 855.54102 L 2214.8535 840.92969 L 2213.5488 769.81836 C 2212.3324 703.46336 2211.9288 698.38965 2207.5176 693.97852 C 2203.9249 690.38575 2194.1468 687.90485 2166.7754 683.64062 C 2117.0517 675.8941 2040.4918 667.46634 2016.0098 667.04492 L 1995.6387 666.69336 z "
         transform="matrix(0.26458333,0,0,0.26458333,0.43201469,0.0015928)"
         d="m 2076.7402,9.6640625 c -30.0294,0.087102 -35.6077,2.6856715 -139.5761,38.1445315 -97.6865,33.316366 -85.5655,25.562124 -105.7637,67.664066 l -17.0996,35.64257 1.1719,70.99024 c 1.0907,66.10804 1.5035,71.43648 5.9941,77.45117 6.0451,8.09672 11.0789,9.15685 64.8789,13.68359 23.9574,2.01579 49.5487,4.18925 56.8691,4.82813 l 13.3086,1.16016 31.459,-32.32813 c 33.8671,-34.80367 34.5371,-35.21251 70.1797,-42.875 22.8496,-4.91225 83.8906,-4.16774 101.5332,1.23828 31.928,9.78333 52.1328,26.48933 52.1328,43.10742 0,8.847 -1.0954,9.52157 -74.2988,45.66211 -58.2358,28.75095 -58.7035,29.04413 -82.0117,51.32227 -25.3975,24.27522 -69.6325,73.40394 -79.4571,88.25 -5.0854,7.6846 -6.5145,13.86783 -8.5644,37.0293 -2.7725,31.32696 -3.2785,77.76566 -0.9727,89.29492 0.8413,4.20654 3.4694,8.6864 5.8399,9.95508 2.3706,1.26868 33.5349,4.51693 69.2539,7.21875 35.719,2.70182 72.0207,5.84313 80.6719,6.98046 8.6513,1.13735 18.0798,2.20621 20.9511,2.375 5.8544,0.34409 13.5308,-7.64317 49.2286,-51.22656 22.6903,-27.70247 23.2332,-28.16468 41.8105,-35.4043 10.3522,-4.03431 45.2008,-15.65385 77.4395,-25.82226 32.2388,-10.1684 61.3385,-19.92644 64.666,-21.68359 8.3218,-4.39462 55.8136,-41.65282 75.2402,-59.02735 l 15.9512,-14.26562 1.5215,-30.02149 1.5214,-30.02148 12.2461,-12.2461 12.2461,-12.24609 -1.541,-33.54492 c -0.8474,-18.44969 -2.9174,-52.9477 -4.5996,-76.66211 l -3.0586,-43.11719 -11.0664,-16.17187 c -23.7515,-34.70938 -67.6476,-73.005256 -112.6055,-98.238284 -55.6661,-31.243157 -94.2619,-46.401067 -126.5527,-49.701172 -41.4382,-4.234971 -102.5276,-7.3552558 -144.2227,-7.3671878 -5.646,-0.00162 -10.4346,-0.039787 -14.7246,-0.027344 z m -81.1015,657.0292975 -24.6348,27.13672 -24.6328,27.13672 -1.5781,22.24023 c -2.5163,35.4492 -1.885,137.39859 0.8828,142.57031 4.6282,8.64786 33.3344,14.34765 133.9414,26.59571 30.7903,3.74844 60.3277,6.62973 65.6387,6.40429 9.1075,-0.38661 10.8001,-1.77913 29.7871,-24.51757 11.0721,-13.25974 24.5592,-30.683 29.9707,-38.71875 l 9.8398,-14.61133 -1.3047,-71.11133 c -1.2164,-66.355 -1.62,-71.42871 -6.0312,-75.83984 -3.5927,-3.59277 -13.3708,-6.07367 -40.7422,-10.3379 -49.7237,-7.74652 -126.2836,-16.17428 -150.7656,-16.5957 z" /><path
         id="path11"
         style="fill:#000000;fill-opacity:1;stroke:#ffffff;stroke-width:0;stroke-dasharray:none;stroke-opacity:1"
         sodipodi:type="inkscape:offset"
         inkscape:radius="0"
         inkscape:original="M 2076.7402 9.6640625 C 2046.7108 9.7511643 2041.1325 12.349734 1937.1641 47.808594 C 1839.4776 81.12496 1851.5986 73.370718 1831.4004 115.47266 L 1814.3008 151.11523 L 1815.4727 222.10547 C 1816.5634 288.21351 1816.9762 293.54195 1821.4668 299.55664 C 1827.5119 307.65336 1832.5457 308.71349 1886.3457 313.24023 C 1910.3031 315.25602 1935.8944 317.42948 1943.2148 318.06836 L 1956.5234 319.22852 L 1987.9824 286.90039 C 2021.8495 252.09672 2022.5195 251.68788 2058.1621 244.02539 C 2081.0117 239.11314 2142.0527 239.85765 2159.6953 245.26367 C 2191.6233 255.047 2211.8281 271.753 2211.8281 288.37109 C 2211.8281 297.21809 2210.7327 297.89266 2137.5293 334.0332 C 2079.2935 362.78415 2078.8258 363.07733 2055.5176 385.35547 C 2030.1201 409.63069 1985.8851 458.75941 1976.0605 473.60547 C 1970.9751 481.29007 1969.546 487.4733 1967.4961 510.63477 C 1964.7236 541.96173 1964.2176 588.40043 1966.5234 599.92969 C 1967.3647 604.13623 1969.9928 608.61609 1972.3633 609.88477 C 1974.7339 611.15345 2005.8982 614.4017 2041.6172 617.10352 C 2077.3362 619.80534 2113.6379 622.94665 2122.2891 624.08398 C 2130.9404 625.22133 2140.3689 626.29019 2143.2402 626.45898 C 2149.0946 626.80307 2156.771 618.81581 2192.4688 575.23242 C 2215.1591 547.52995 2215.702 547.06774 2234.2793 539.82812 C 2244.6315 535.79381 2279.4801 524.17427 2311.7188 514.00586 C 2343.9576 503.83746 2373.0573 494.07942 2376.3848 492.32227 C 2384.7066 487.92765 2432.1984 450.66945 2451.625 433.29492 L 2467.5762 419.0293 L 2469.0977 389.00781 L 2470.6191 358.98633 L 2482.8652 346.74023 L 2495.1113 334.49414 L 2493.5703 300.94922 C 2492.7229 282.49953 2490.6529 248.00152 2488.9707 224.28711 L 2485.9121 181.16992 L 2474.8457 164.99805 C 2451.0942 130.28867 2407.1981 91.992794 2362.2402 66.759766 C 2306.5741 35.516609 2267.9783 20.358699 2235.6875 17.058594 C 2194.2493 12.823623 2133.1599 9.7033382 2091.4648 9.6914062 C 2085.8188 9.6897905 2081.0302 9.6516194 2076.7402 9.6640625 z M 1995.6387 666.69336 L 1971.0039 693.83008 L 1946.3711 720.9668 L 1944.793 743.20703 C 1942.2767 778.65623 1942.908 880.60562 1945.6758 885.77734 C 1950.304 894.4252 1979.0102 900.12499 2079.6172 912.37305 C 2110.4075 916.12149 2139.9449 919.00278 2145.2559 918.77734 C 2154.3634 918.39073 2156.056 916.99821 2175.043 894.25977 C 2186.1151 881.00003 2199.6022 863.57677 2205.0137 855.54102 L 2214.8535 840.92969 L 2213.5488 769.81836 C 2212.3324 703.46336 2211.9288 698.38965 2207.5176 693.97852 C 2203.9249 690.38575 2194.1468 687.90485 2166.7754 683.64062 C 2117.0517 675.8941 2040.4918 667.46634 2016.0098 667.04492 L 1995.6387 666.69336 z "
         transform="scale(0.26458333)"
         d="m 2076.7402,9.6640625 c -30.0294,0.087102 -35.6077,2.6856715 -139.5761,38.1445315 -97.6865,33.316366 -85.5655,25.562124 -105.7637,67.664066 l -17.0996,35.64257 1.1719,70.99024 c 1.0907,66.10804 1.5035,71.43648 5.9941,77.45117 6.0451,8.09672 11.0789,9.15685 64.8789,13.68359 23.9574,2.01579 49.5487,4.18925 56.8691,4.82813 l 13.3086,1.16016 31.459,-32.32813 c 33.8671,-34.80367 34.5371,-35.21251 70.1797,-42.875 22.8496,-4.91225 83.8906,-4.16774 101.5332,1.23828 31.928,9.78333 52.1328,26.48933 52.1328,43.10742 0,8.847 -1.0954,9.52157 -74.2988,45.66211 -58.2358,28.75095 -58.7035,29.04413 -82.0117,51.32227 -25.3975,24.27522 -69.6325,73.40394 -79.4571,88.25 -5.0854,7.6846 -6.5145,13.86783 -8.5644,37.0293 -2.7725,31.32696 -3.2785,77.76566 -0.9727,89.29492 0.8413,4.20654 3.4694,8.6864 5.8399,9.95508 2.3706,1.26868 33.5349,4.51693 69.2539,7.21875 35.719,2.70182 72.0207,5.84313 80.6719,6.98046 8.6513,1.13735 18.0798,2.20621 20.9511,2.375 5.8544,0.34409 13.5308,-7.64317 49.2286,-51.22656 22.6903,-27.70247 23.2332,-28.16468 41.8105,-35.4043 10.3522,-4.03431 45.2008,-15.65385 77.4395,-25.82226 32.2388,-10.1684 61.3385,-19.92644 64.666,-21.68359 8.3218,-4.39462 55.8136,-41.65282 75.2402,-59.02735 l 15.9512,-14.26562 1.5215,-30.02149 1.5214,-30.02148 12.2461,-12.2461 12.2461,-12.24609 -1.541,-33.54492 c -0.8474,-18.44969 -2.9174,-52.9477 -4.5996,-76.66211 l -3.0586,-43.11719 -11.0664,-16.17187 c -23.7515,-34.70938 -67.6476,-73.005256 -112.6055,-98.238284 -55.6661,-31.243157 -94.2619,-46.401067 -126.5527,-49.701172 -41.4382,-4.234971 -102.5276,-7.3552558 -144.2227,-7.3671878 -5.646,-0.00162 -10.4346,-0.039787 -14.7246,-0.027344 z m -81.1015,657.0292975 -24.6348,27.13672 -24.6328,27.13672 -1.5781,22.24023 c -2.5163,35.4492 -1.885,137.39859 0.8828,142.57031 4.6282,8.64786 33.3344,14.34765 133.9414,26.59571 30.7903,3.74844 60.3277,6.62973 65.6387,6.40429 9.1075,-0.38661 10.8001,-1.77913 29.7871,-24.51757 11.0721,-13.25974 24.5592,-30.683 29.9707,-38.71875 l 9.8398,-14.61133 -1.3047,-71.11133 c -1.2164,-66.355 -1.62,-71.42871 -6.0312,-75.83984 -3.5927,-3.59277 -13.3708,-6.07367 -40.7422,-10.3379 -49.7237,-7.74652 -126.2836,-16.17428 -150.7656,-16.5957 z" /><g
         id="g13"
         transform="translate(-124.64797,211.49889)"><path
           style="fill:#2fb8ff;fill-opacity:1;stroke:none;stroke-width:4.83989;stroke-dasharray:none;stroke-opacity:1"
           d="m 696.66143,-69.594875 c -1.5847,-0.118915 -6.62689,-0.632564 -11.20487,-1.141434 -4.57795,-0.508881 -11.14724,-1.116899 -14.59838,-1.351172 l -6.27478,-0.425936 0.44881,-10.325952 0.44884,-10.325944 2.30444,-2.827629 c 1.26743,-1.555191 5.53765,-5.758328 9.48936,-9.340288 5.58766,-5.06486 8.14975,-6.91542 11.52499,-8.32435 14.47427,-6.04204 31.09047,-13.99285 38.83324,-18.58159 l 5.04044,-2.98722 -0.27712,-13.22426 c -0.18609,-8.87941 -0.53997,-13.70728 -1.07707,-14.69443 -1.27407,-2.34157 -8.01206,-6.92099 -12.39091,-8.42138 -6.06981,-2.07979 -17.27912,-3.33926 -31.87116,-3.58101 -14.63894,-0.24252 -16.52317,0.0522 -24.81101,3.88147 -7.21587,3.33393 -6.97957,2.94892 -7.51583,12.24595 l -0.46342,8.03488 -5.53434,-0.38546 c -3.0439,-0.21201 -7.98341,-0.52987 -10.97669,-0.70635 -5.62229,-0.3315 -9.73063,-0.81189 -11.69559,-1.36759 -1.04971,-0.29687 -1.11876,-1.5178 -0.96041,-16.98256 l 0.1706,-16.66271 13.76596,-4.65066 c 13.10444,-4.42717 19.83621,-6.78403 26.25132,-9.19085 2.39525,-0.89864 5.14929,-1.06891 16.32707,-1.00942 14.14187,0.0753 37.27238,1.67215 41.61798,2.87321 3.53859,0.97803 17.50033,8.06249 30.09299,15.26978 6.51068,3.72632 19.5312,16.18279 21.65305,20.715 0.72916,1.5575 1.08802,6.24613 1.49802,19.57203 l 0.53917,17.52388 -5.11824,4.24553 c -12.03669,9.98432 -19.93834,16.11194 -21.13311,16.38842 -10.55616,2.44279 -40.71194,10.261962 -43.8327,11.365504 -3.25557,1.151205 -4.22974,1.802982 -4.5782,3.063071 -0.24344,0.88038 -0.47132,6.138651 -0.50643,11.685047 -0.0582,9.198282 -0.16227,10.074527 -1.18431,9.972493 -0.61626,-0.06152 -2.41704,-0.209153 -4.00171,-0.32807 z"
           id="path8" /><path
           style="fill:#2fb8ff;fill-opacity:1;stroke:none;stroke-width:4.83989;stroke-dasharray:none;stroke-opacity:1"
           d="m 694.68724,2.30881 c -0.14674,-0.13597 -2.97061,-0.43099 -6.27528,-0.6556 -3.3047,-0.22461 -6.18593,-0.51749 -6.40279,-0.65083 -0.21682,-0.13335 -2.00961,-0.41419 -3.98391,-0.62409 -1.97432,-0.2099 -5.14368,-0.67755 -7.04305,-1.03921 -1.89936,-0.36166 -4.31776,-0.80458 -5.37421,-0.98426 -3.93055,-0.66849 -3.9329,-0.6716 -4.70768,-6.21621 -0.40497,-2.89814 -0.73594,-8.51624 -0.73549,-12.48466 0,-7.148892 0.014,-7.212413 1.44145,-6.900165 0.79235,0.173331 2.88123,0.457636 4.64201,0.63179 10.34531,1.023242 28.65995,3.644681 31.53362,4.513515 l 3.36145,1.01632 V -9.26428 2.55603 h -3.09467 c -1.70209,0 -3.21474,-0.11125 -3.36145,-0.24722 z"
           id="path9" /></g></g></g></svg>
